<svg width="800" height="298" viewBox="0 0 800 298" fill="none" xmlns="http://www.w3.org/2000/svg">
<path d="M133.593 127.897L129.474 134.959L133.593 146.73H144.775L147.718 137.313L202.45 123.189L212.455 99.0598L186.56 94.3517L144.775 130.251L133.593 127.897Z" fill="#252429"/>
<circle cx="123" cy="147.318" r="118.5" stroke="#252429" stroke-width="9"/>
<rect x="116.526" y="39.6196" width="11.7703" height="31.7799" rx="5.88517" fill="#252429"/>
<rect x="47.0814" y="73.8964" width="3.5311" height="20.0096" rx="1.76555" transform="rotate(-45 47.0814 73.8964)" fill="#252429"/>
<rect width="3.5311" height="20.0096" rx="1.76555" transform="matrix(0.707107 0.707107 0.707107 -0.707107 47.0814 220.907)" fill="#252429"/>
<rect x="186.114" y="88.0453" width="3.5311" height="20.0096" rx="1.76555" transform="rotate(-135 186.114 88.0453)" fill="#252429"/>
<rect width="3.5311" height="20.0096" rx="1.76555" transform="matrix(-0.707107 0.707107 0.707107 0.707107 186.114 206.758)" fill="#252429"/>
<rect x="200.096" y="152.615" width="11.7703" height="31.7799" rx="5.88517" transform="rotate(-90 200.096 152.615)" fill="#252429"/>
<rect x="15.3014" y="152.615" width="11.7703" height="31.7799" rx="5.88517" transform="rotate(-90 15.3014 152.615)" fill="#252429"/>
<path d="M110.053 167.916L114.761 159.089H130.651L135.947 167.916L127.12 179.098L128.885 187.926L114.761 197.342L117.703 179.098L110.053 167.916Z" fill="#252429"/>
<path d="M130.651 193.577L112.995 204.17V213.586L130.651 201.227V193.577Z" fill="#252429"/>
<path d="M135.071 208.264L134.67 205.987L132.754 207.281L109.213 223.171L108.672 223.536L108.571 224.182L102.685 261.847L102.599 262.401L102.897 262.876L121.729 292.891L122.962 294.855L124.248 292.925L144.258 262.911L144.591 262.411L144.487 261.819L135.071 208.264Z" fill="#252429" stroke="#252429" stroke-width="3"/>
<circle cx="122.411" cy="146.73" r="11.1244" stroke="#252429" stroke-width="6"/>
<path d="M361.33 61.1C364.017 61.62 366.01 62.53 367.31 63.83C368.697 65.13 369.39 66.6467 369.39 68.38C369.39 71.24 368.567 73.32 366.92 74.62C365.36 75.92 362.847 76.44 359.38 76.18C351.58 75.5733 345.47 75.1833 341.05 75.01C336.717 74.75 330.997 74.5767 323.89 74.49C320.683 90.4367 317.737 106.47 315.05 122.59C314.097 128.483 313.1 135.33 312.06 143.13C311.02 150.843 310.327 157.083 309.98 161.85C309.807 164.363 308.767 166.313 306.86 167.7C304.953 169 302.657 169.65 299.97 169.65C297.11 169.65 294.9 168.957 293.34 167.57C291.78 166.183 291 164.363 291 162.11C291 160.03 291.303 156.607 291.91 151.84C292.603 146.987 293.383 141.917 294.25 136.63C295.203 131.343 295.94 126.75 296.46 122.85C297.413 116.263 298.497 109.72 299.71 103.22C300.923 96.72 302.137 90.5667 303.35 84.76C303.61 83.46 303.913 81.9867 304.26 80.34C304.607 78.6067 304.997 76.7 305.43 74.62C296.937 74.88 290.263 75.5733 285.41 76.7C280.557 77.8267 277.09 79.43 275.01 81.51C273.017 83.5033 272.02 86.1033 272.02 89.31C272.02 92.2567 272.887 95.0733 274.62 97.76C274.967 98.3667 275.14 99.0167 275.14 99.71C275.14 101.357 274.143 102.917 272.15 104.39C270.243 105.777 268.25 106.47 266.17 106.47C264.697 106.47 263.483 106.037 262.53 105.17C260.797 103.697 259.367 101.617 258.24 98.93C257.113 96.1567 256.55 93.0367 256.55 89.57C256.55 82.2033 258.933 76.31 263.7 71.89C268.553 67.3833 275.877 64.09 285.67 62.01C295.55 59.93 308.203 58.89 323.63 58.89C333.163 58.89 340.747 59.0633 346.38 59.41C352.1 59.7567 357.083 60.32 361.33 61.1ZM361.979 99.84C358.339 99.84 355.609 99.0167 353.789 97.37C351.969 95.6367 351.059 93.2533 351.059 90.22C351.059 87.1867 352.229 84.6733 354.569 82.68C356.996 80.6 359.986 79.56 363.539 79.56C366.746 79.56 369.346 80.34 371.339 81.9C373.332 83.46 374.329 85.67 374.329 88.53C374.329 91.9967 373.202 94.77 370.949 96.85C368.696 98.8433 365.706 99.84 361.979 99.84ZM360.939 169.65C355.306 169.65 351.189 167.657 348.589 163.67C346.076 159.683 344.819 154.397 344.819 147.81C344.819 143.91 345.296 138.927 346.249 132.86C347.289 126.707 348.589 120.987 350.149 115.7C350.929 112.927 351.969 111.02 353.269 109.98C354.569 108.94 356.649 108.42 359.509 108.42C363.929 108.42 366.139 109.893 366.139 112.84C366.139 115.007 365.316 120.033 363.669 127.92C361.589 137.453 360.549 143.91 360.549 147.29C360.549 149.89 360.896 151.883 361.589 153.27C362.282 154.657 363.452 155.35 365.099 155.35C366.659 155.35 368.609 154.267 370.949 152.1C373.289 149.933 376.409 146.51 380.309 141.83C381.349 140.617 382.519 140.01 383.819 140.01C384.946 140.01 385.812 140.53 386.419 141.57C387.112 142.61 387.459 144.04 387.459 145.86C387.459 149.327 386.636 152.013 384.989 153.92C376.409 164.407 368.392 169.65 360.939 169.65ZM386.171 169.65C382.878 169.65 380.538 167.917 379.151 164.45C377.851 160.983 377.201 155.437 377.201 147.81C377.201 136.543 378.805 125.84 382.011 115.7C382.791 113.187 384.048 111.367 385.781 110.24C387.601 109.027 390.115 108.42 393.321 108.42C395.055 108.42 396.268 108.637 396.961 109.07C397.655 109.503 398.001 110.327 398.001 111.54C398.001 112.927 397.351 116.047 396.051 120.9C395.185 124.367 394.491 127.4 393.971 130C393.451 132.513 393.018 135.677 392.671 139.49C395.011 132.73 397.785 127.01 400.991 122.33C404.285 117.65 407.621 114.183 411.001 111.93C414.468 109.59 417.718 108.42 420.751 108.42C423.785 108.42 425.908 109.113 427.121 110.5C428.421 111.887 429.071 114.01 429.071 116.87C429.071 119.643 428.248 124.67 426.601 131.95C425.908 135.07 425.431 137.41 425.171 138.97C429.505 128.31 434.315 120.553 439.601 115.7C444.888 110.847 449.828 108.42 454.421 108.42C460.055 108.42 462.871 111.237 462.871 116.87C462.871 120.25 461.918 126.36 460.011 135.2C458.365 142.74 457.541 147.723 457.541 150.15C457.541 153.617 458.798 155.35 461.311 155.35C463.045 155.35 465.081 154.31 467.421 152.23C469.848 150.063 473.055 146.597 477.041 141.83C478.081 140.617 479.251 140.01 480.551 140.01C481.678 140.01 482.545 140.53 483.151 141.57C483.845 142.61 484.191 144.04 484.191 145.86C484.191 149.327 483.368 152.013 481.721 153.92C477.995 158.513 473.965 162.283 469.631 165.23C465.385 168.177 460.531 169.65 455.071 169.65C450.651 169.65 447.315 168.393 445.061 165.88C442.808 163.28 441.681 159.553 441.681 154.7C441.681 152.273 442.288 147.94 443.501 141.7C444.628 136.24 445.191 132.47 445.191 130.39C445.191 129.003 444.715 128.31 443.761 128.31C442.635 128.31 441.031 129.783 438.951 132.73C436.871 135.59 434.791 139.403 432.711 144.17C430.631 148.937 428.941 153.963 427.641 159.25C426.688 163.41 425.561 166.183 424.261 167.57C423.048 168.957 421.055 169.65 418.281 169.65C415.421 169.65 413.255 168.307 411.781 165.62C410.395 162.847 409.701 159.51 409.701 155.61C409.701 152.317 410.135 147.55 411.001 141.31C411.695 135.763 412.041 132.123 412.041 130.39C412.041 129.003 411.565 128.31 410.611 128.31C409.311 128.31 407.665 129.87 405.671 132.99C403.678 136.11 401.728 140.097 399.821 144.95C398.001 149.803 396.528 154.57 395.401 159.25C394.448 163.323 393.321 166.097 392.021 167.57C390.808 168.957 388.858 169.65 386.171 169.65ZM531.659 140.01C532.786 140.01 533.653 140.53 534.259 141.57C534.953 142.61 535.299 144.04 535.299 145.86C535.299 149.327 534.476 152.013 532.829 153.92C529.623 157.82 525.073 161.417 519.179 164.71C513.373 168.003 507.133 169.65 500.459 169.65C491.359 169.65 484.296 167.18 479.269 162.24C474.243 157.3 471.729 150.54 471.729 141.96C471.729 135.98 472.986 130.433 475.499 125.32C478.013 120.12 481.479 116.003 485.899 112.97C490.406 109.937 495.476 108.42 501.109 108.42C506.136 108.42 510.166 109.937 513.199 112.97C516.233 115.917 517.749 119.947 517.749 125.06C517.749 131.04 515.583 136.197 511.249 140.53C507.003 144.777 499.766 148.157 489.539 150.67C491.706 154.657 495.823 156.65 501.889 156.65C505.789 156.65 510.209 155.307 515.149 152.62C520.176 149.847 524.509 146.25 528.149 141.83C529.189 140.617 530.359 140.01 531.659 140.01ZM498.899 121.16C495.693 121.16 492.963 123.023 490.709 126.75C488.543 130.477 487.459 134.983 487.459 140.27V140.53C492.573 139.317 496.603 137.497 499.549 135.07C502.496 132.643 503.969 129.827 503.969 126.62C503.969 124.973 503.493 123.673 502.539 122.72C501.673 121.68 500.459 121.16 498.899 121.16ZM548.895 172.51C544.388 172.51 540.921 171.47 538.495 169.39C536.155 167.31 534.985 164.97 534.985 162.37C534.985 160.117 535.808 158.167 537.455 156.52C539.101 154.873 541.528 154.05 544.735 154.05C545.861 154.05 547.161 154.18 548.635 154.44C550.195 154.613 551.365 154.743 552.145 154.83C552.058 152.577 551.538 150.453 550.585 148.46C549.718 146.467 548.591 144.56 547.205 142.74C545.818 140.833 544.518 139.187 543.305 137.8C540.618 142.913 537.931 147.16 535.245 150.54C532.645 153.92 529.785 157.127 526.665 160.16C525.105 161.72 523.458 162.5 521.725 162.5C520.338 162.5 519.211 162.023 518.345 161.07C517.478 160.03 517.045 158.773 517.045 157.3C517.045 155.567 517.651 153.963 518.865 152.49L520.555 150.41C525.321 144.517 528.918 139.663 531.345 135.85C532.818 133.337 534.551 130 536.545 125.84C538.538 121.593 540.488 117.217 542.395 112.71C544.041 108.897 547.465 106.99 552.665 106.99C555.091 106.99 556.781 107.207 557.735 107.64C558.688 108.073 559.165 108.767 559.165 109.72C559.165 110.24 558.991 111.063 558.645 112.19C558.298 113.317 557.821 114.443 557.215 115.57C555.655 118.69 554.875 121.333 554.875 123.5C554.875 124.8 555.308 126.23 556.175 127.79C557.128 129.35 558.558 131.3 560.465 133.64C563.238 137.28 565.318 140.4 566.705 143C568.178 145.513 568.915 148.287 568.915 151.32C568.915 152.187 568.828 153.4 568.655 154.96C572.901 153.313 577.885 148.937 583.605 141.83C584.645 140.617 585.815 140.01 587.115 140.01C588.241 140.01 589.108 140.53 589.715 141.57C590.408 142.61 590.755 144.04 590.755 145.86C590.755 149.153 589.931 151.84 588.285 153.92C583.951 159.293 579.791 162.977 575.805 164.97C571.905 166.877 567.051 167.917 561.245 168.09C557.778 171.037 553.661 172.51 548.895 172.51ZM652.343 140.01C653.47 140.01 654.336 140.53 654.943 141.57C655.636 142.61 655.983 144.04 655.983 145.86C655.983 149.327 655.16 152.013 653.513 153.92C649.526 158.513 645.41 162.283 641.163 165.23C637.003 168.177 632.236 169.65 626.863 169.65C622.443 169.65 619.106 168.393 616.853 165.88C614.6 163.28 613.473 159.553 613.473 154.7C613.473 152.273 614.08 147.94 615.293 141.7C616.42 136.24 616.983 132.47 616.983 130.39C616.983 129.003 616.506 128.31 615.553 128.31C614.426 128.31 612.823 129.783 610.743 132.73C608.663 135.59 606.583 139.403 604.503 144.17C602.423 148.937 600.733 153.963 599.433 159.25C597.786 166.183 593.713 169.65 587.213 169.65C584.613 169.65 582.88 168.74 582.013 166.92C581.233 165.013 580.843 161.633 580.843 156.78C580.843 154.007 580.886 151.797 580.973 150.15L581.103 139.75C581.103 126.403 582.446 112.493 585.133 98.02C587.906 83.5467 591.936 71.4133 597.223 61.62C602.596 51.74 609.01 46.8 616.463 46.8C620.45 46.8 623.656 48.5333 626.083 52C628.596 55.38 629.853 59.8 629.853 65.26C629.853 74.0133 627.296 83.1133 622.183 92.56C617.07 101.92 608.75 112.883 597.223 125.45C596.963 129.957 596.833 134.593 596.833 139.36C599.693 131.993 602.856 126.013 606.323 121.42C609.876 116.74 613.343 113.403 616.723 111.41C620.19 109.417 623.353 108.42 626.213 108.42C631.846 108.42 634.663 111.237 634.663 116.87C634.663 120.25 633.71 126.36 631.803 135.2C630.156 142.74 629.333 147.723 629.333 150.15C629.333 153.617 630.59 155.35 633.103 155.35C634.836 155.35 636.873 154.31 639.213 152.23C641.64 150.063 644.846 146.597 648.833 141.83C649.873 140.617 651.043 140.01 652.343 140.01ZM613.733 59.67C612.173 59.67 610.44 61.9233 608.533 66.43C606.626 70.85 604.763 76.8733 602.943 84.5C601.21 92.04 599.78 100.273 598.653 109.2C604.026 102.873 608.446 95.9833 611.913 88.53C615.466 81.0767 617.243 74.3167 617.243 68.25C617.243 65.4767 616.94 63.3533 616.333 61.88C615.726 60.4067 614.86 59.67 613.733 59.67ZM703.427 140.01C704.554 140.01 705.42 140.53 706.027 141.57C706.72 142.61 707.067 144.04 707.067 145.86C707.067 149.327 706.244 152.013 704.597 153.92C701.39 157.82 696.84 161.417 690.947 164.71C685.14 168.003 678.9 169.65 672.227 169.65C663.127 169.65 656.064 167.18 651.037 162.24C646.01 157.3 643.497 150.54 643.497 141.96C643.497 135.98 644.754 130.433 647.267 125.32C649.78 120.12 653.247 116.003 657.667 112.97C662.174 109.937 667.244 108.42 672.877 108.42C677.904 108.42 681.934 109.937 684.967 112.97C688 115.917 689.517 119.947 689.517 125.06C689.517 131.04 687.35 136.197 683.017 140.53C678.77 144.777 671.534 148.157 661.307 150.67C663.474 154.657 667.59 156.65 673.657 156.65C677.557 156.65 681.977 155.307 686.917 152.62C691.944 149.847 696.277 146.25 699.917 141.83C700.957 140.617 702.127 140.01 703.427 140.01ZM670.667 121.16C667.46 121.16 664.73 123.023 662.477 126.75C660.31 130.477 659.227 134.983 659.227 140.27V140.53C664.34 139.317 668.37 137.497 671.317 135.07C674.264 132.643 675.737 129.827 675.737 126.62C675.737 124.973 675.26 123.673 674.307 122.72C673.44 121.68 672.227 121.16 670.667 121.16ZM754.462 140.01C755.589 140.01 756.456 140.53 757.062 141.57C757.756 142.61 758.102 144.04 758.102 145.86C758.102 149.327 757.279 152.013 755.632 153.92C752.426 157.82 747.876 161.417 741.982 164.71C736.176 168.003 729.936 169.65 723.262 169.65C714.162 169.65 707.099 167.18 702.072 162.24C697.046 157.3 694.532 150.54 694.532 141.96C694.532 135.98 695.789 130.433 698.302 125.32C700.816 120.12 704.282 116.003 708.702 112.97C713.209 109.937 718.279 108.42 723.912 108.42C728.939 108.42 732.969 109.937 736.002 112.97C739.036 115.917 740.552 119.947 740.552 125.06C740.552 131.04 738.386 136.197 734.052 140.53C729.806 144.777 722.569 148.157 712.342 150.67C714.509 154.657 718.626 156.65 724.692 156.65C728.592 156.65 733.012 155.307 737.952 152.62C742.979 149.847 747.312 146.25 750.952 141.83C751.992 140.617 753.162 140.01 754.462 140.01ZM721.702 121.16C718.496 121.16 715.766 123.023 713.512 126.75C711.346 130.477 710.262 134.983 710.262 140.27V140.53C715.376 139.317 719.406 137.497 722.352 135.07C725.299 132.643 726.772 129.827 726.772 126.62C726.772 124.973 726.296 123.673 725.342 122.72C724.476 121.68 723.262 121.16 721.702 121.16ZM768.967 120.77C768.794 125.103 768.707 128.483 768.707 130.91C768.707 137.15 769.011 142.047 769.617 145.6C770.311 149.067 771.394 151.58 772.867 153.14C774.427 154.613 776.551 155.35 779.237 155.35C780.624 155.35 782.271 154.917 784.177 154.05C786.084 153.183 787.817 152.057 789.377 150.67C790.331 149.803 791.284 149.37 792.237 149.37C793.277 149.37 794.101 149.977 794.707 151.19C795.401 152.317 795.747 153.703 795.747 155.35C795.747 156.997 795.401 158.6 794.707 160.16C794.101 161.72 793.147 163.02 791.847 164.06C787.341 167.787 782.227 169.65 776.507 169.65C768.274 169.65 762.251 166.227 758.437 159.38C754.624 152.447 752.717 143.433 752.717 132.34C752.717 128.527 752.847 124.67 753.107 120.77H748.037C745.437 120.77 743.661 120.293 742.707 119.34C741.841 118.387 741.407 116.87 741.407 114.79C741.407 109.937 743.357 107.51 747.257 107.51H754.667C756.141 97.9767 758.394 89.2667 761.427 81.38C764.461 73.4933 768.101 67.21 772.347 62.53C776.681 57.85 781.317 55.51 786.257 55.51C789.897 55.51 792.757 57.1133 794.837 60.32C796.917 63.5267 797.957 67.5567 797.957 72.41C797.957 85.8433 792.324 97.5433 781.057 107.51H795.617C797.004 107.51 798.001 107.813 798.607 108.42C799.214 109.027 799.517 110.153 799.517 111.8C799.517 117.78 794.621 120.77 784.827 120.77H768.967ZM782.747 67.99C781.447 67.99 779.974 69.6367 778.327 72.93C776.767 76.1367 775.251 80.6433 773.777 86.45C772.391 92.17 771.221 98.54 770.267 105.56C775.381 101.14 779.194 96.2 781.707 90.74C784.307 85.1933 785.607 80.1667 785.607 75.66C785.607 70.5467 784.654 67.99 782.747 67.99Z" fill="#252429"/>
<path d="M291.477 193.17H281.432V219H277.742V193.17H267.697V189.89H291.477V193.17ZM295.096 219V197.598H298.704V219H295.096ZM295.096 193.58V189.07H298.704V193.58H295.096ZM336.812 219H333.204V207.028C333.204 204.787 332.835 203.133 332.097 202.067C331.386 201.001 330.32 200.468 328.899 200.468C327.45 200.468 326.138 201.001 324.963 202.067C323.787 203.106 322.954 204.459 322.462 206.126V219H318.854V207.028C318.854 204.759 318.498 203.106 317.788 202.067C317.077 201.001 316.011 200.468 314.59 200.468C313.168 200.468 311.856 200.987 310.654 202.026C309.478 203.037 308.645 204.39 308.153 206.085V219H304.545V197.598H307.825V202.19C308.699 200.605 309.834 199.388 311.228 198.541C312.622 197.666 314.193 197.229 315.943 197.229C317.719 197.229 319.141 197.721 320.207 198.705C321.273 199.662 321.929 200.905 322.175 202.436C323.131 200.741 324.293 199.457 325.66 198.582C327.026 197.68 328.584 197.229 330.334 197.229C331.564 197.229 332.589 197.461 333.409 197.926C334.256 198.363 334.926 198.992 335.418 199.812C335.91 200.605 336.265 201.548 336.484 202.641C336.702 203.734 336.812 204.923 336.812 206.208V219ZM351.893 219.41C350.28 219.41 348.804 219.123 347.465 218.549C346.153 217.948 345.005 217.141 344.021 216.13C343.064 215.091 342.312 213.902 341.766 212.563C341.246 211.224 340.987 209.802 340.987 208.299C340.987 206.276 341.451 204.431 342.381 202.764C343.31 201.097 344.595 199.757 346.235 198.746C347.902 197.735 349.802 197.229 351.934 197.229C354.093 197.229 355.965 197.748 357.551 198.787C359.163 199.798 360.407 201.138 361.282 202.805C362.184 204.445 362.635 206.222 362.635 208.135C362.635 208.408 362.621 208.682 362.594 208.955C362.594 209.201 362.58 209.392 362.553 209.529H344.8C344.909 210.923 345.292 212.167 345.948 213.26C346.631 214.326 347.506 215.173 348.572 215.802C349.638 216.403 350.786 216.704 352.016 216.704C353.328 216.704 354.558 216.376 355.706 215.72C356.881 215.064 357.687 214.203 358.125 213.137L361.241 213.998C360.776 215.037 360.079 215.966 359.15 216.786C358.248 217.606 357.168 218.248 355.911 218.713C354.681 219.178 353.341 219.41 351.893 219.41ZM344.677 207.028H359.273C359.163 205.634 358.767 204.404 358.084 203.338C357.4 202.272 356.526 201.438 355.46 200.837C354.394 200.236 353.218 199.935 351.934 199.935C350.676 199.935 349.515 200.236 348.449 200.837C347.383 201.438 346.508 202.272 345.825 203.338C345.169 204.404 344.786 205.634 344.677 207.028ZM377.015 219V197.598H380.623V219H377.015ZM377.015 193.58V189.07H380.623V193.58H377.015ZM393.804 219.41C392.027 219.41 390.36 219.123 388.802 218.549C387.244 217.948 385.904 217.059 384.784 215.884L386.178 213.342C387.408 214.49 388.638 215.31 389.868 215.802C391.098 216.294 392.355 216.54 393.64 216.54C395.116 216.54 396.318 216.267 397.248 215.72C398.177 215.146 398.642 214.312 398.642 213.219C398.642 212.426 398.396 211.839 397.904 211.456C397.439 211.073 396.769 210.759 395.895 210.513C395.02 210.24 393.981 209.939 392.779 209.611C391.303 209.174 390.059 208.709 389.048 208.217C388.036 207.725 387.271 207.11 386.752 206.372C386.232 205.634 385.973 204.705 385.973 203.584C385.973 202.217 386.328 201.069 387.039 200.14C387.749 199.183 388.72 198.459 389.95 197.967C391.207 197.475 392.628 197.229 394.214 197.229C395.799 197.229 397.234 197.475 398.519 197.967C399.803 198.459 400.91 199.183 401.84 200.14L400.2 202.641C399.352 201.766 398.423 201.124 397.412 200.714C396.4 200.277 395.266 200.058 394.009 200.058C393.271 200.058 392.546 200.154 391.836 200.345C391.125 200.509 390.537 200.823 390.073 201.288C389.608 201.725 389.376 202.354 389.376 203.174C389.376 203.857 389.553 204.404 389.909 204.814C390.291 205.197 390.838 205.525 391.549 205.798C392.287 206.071 393.175 206.372 394.214 206.7C395.826 207.165 397.22 207.629 398.396 208.094C399.598 208.559 400.528 209.16 401.184 209.898C401.84 210.636 402.168 211.661 402.168 212.973C402.168 214.996 401.402 216.581 399.872 217.729C398.341 218.85 396.318 219.41 393.804 219.41ZM427.924 217.934C427.624 218.071 427.214 218.248 426.694 218.467C426.175 218.686 425.574 218.877 424.89 219.041C424.207 219.205 423.483 219.287 422.717 219.287C421.843 219.287 421.036 219.137 420.298 218.836C419.56 218.508 418.973 218.016 418.535 217.36C418.098 216.677 417.879 215.829 417.879 214.818V200.427H414.968V197.598H417.879V190.464H421.487V197.598H426.284V200.427H421.487V213.711C421.542 214.476 421.802 215.05 422.266 215.433C422.731 215.788 423.278 215.966 423.906 215.966C424.617 215.966 425.273 215.843 425.874 215.597C426.476 215.351 426.872 215.173 427.063 215.064L427.924 217.934ZM440.336 219.41C438.723 219.41 437.261 219.123 435.949 218.549C434.637 217.948 433.503 217.141 432.546 216.13C431.589 215.091 430.851 213.902 430.332 212.563C429.813 211.224 429.553 209.816 429.553 208.34C429.553 206.837 429.813 205.415 430.332 204.076C430.851 202.737 431.589 201.561 432.546 200.55C433.503 199.511 434.637 198.705 435.949 198.131C437.288 197.53 438.751 197.229 440.336 197.229C441.949 197.229 443.411 197.53 444.723 198.131C446.035 198.705 447.169 199.511 448.126 200.55C449.11 201.561 449.862 202.737 450.381 204.076C450.9 205.415 451.16 206.837 451.16 208.34C451.16 209.816 450.9 211.224 450.381 212.563C449.862 213.902 449.124 215.091 448.167 216.13C447.21 217.141 446.062 217.948 444.723 218.549C443.411 219.123 441.949 219.41 440.336 219.41ZM433.243 208.381C433.243 209.857 433.557 211.196 434.186 212.399C434.842 213.602 435.703 214.558 436.769 215.269C437.835 215.952 439.024 216.294 440.336 216.294C441.648 216.294 442.837 215.939 443.903 215.228C444.996 214.517 445.857 213.561 446.486 212.358C447.142 211.128 447.47 209.775 447.47 208.299C447.47 206.823 447.142 205.484 446.486 204.281C445.857 203.078 444.996 202.122 443.903 201.411C442.837 200.7 441.648 200.345 440.336 200.345C439.024 200.345 437.835 200.714 436.769 201.452C435.703 202.163 434.842 203.119 434.186 204.322C433.557 205.525 433.243 206.878 433.243 208.381ZM476.972 217.934C476.672 218.071 476.262 218.248 475.742 218.467C475.223 218.686 474.622 218.877 473.938 219.041C473.255 219.205 472.531 219.287 471.765 219.287C470.891 219.287 470.084 219.137 469.346 218.836C468.608 218.508 468.021 218.016 467.583 217.36C467.146 216.677 466.927 215.829 466.927 214.818V200.427H464.016V197.598H466.927V190.464H470.535V197.598H475.332V200.427H470.535V213.711C470.59 214.476 470.85 215.05 471.314 215.433C471.779 215.788 472.326 215.966 472.954 215.966C473.665 215.966 474.321 215.843 474.922 215.597C475.524 215.351 475.92 215.173 476.111 215.064L476.972 217.934ZM491.632 200.755C489.828 200.782 488.229 201.247 486.835 202.149C485.469 203.024 484.498 204.24 483.924 205.798V219H480.316V197.598H483.678V202.559C484.416 201.083 485.387 199.894 486.589 198.992C487.819 198.063 489.104 197.543 490.443 197.434C490.717 197.434 490.949 197.434 491.14 197.434C491.332 197.434 491.496 197.448 491.632 197.475V200.755ZM493.53 212.809C493.53 211.442 493.912 210.267 494.678 209.283C495.47 208.272 496.55 207.493 497.917 206.946C499.283 206.399 500.869 206.126 502.673 206.126C503.629 206.126 504.641 206.208 505.707 206.372C506.773 206.509 507.716 206.727 508.536 207.028V205.47C508.536 203.83 508.044 202.545 507.06 201.616C506.076 200.659 504.682 200.181 502.878 200.181C501.702 200.181 500.568 200.4 499.475 200.837C498.409 201.247 497.274 201.848 496.072 202.641L494.76 200.099C496.154 199.142 497.548 198.432 498.942 197.967C500.336 197.475 501.784 197.229 503.288 197.229C506.021 197.229 508.18 197.994 509.766 199.525C511.351 201.028 512.144 203.133 512.144 205.839V214.9C512.144 215.337 512.226 215.665 512.39 215.884C512.581 216.075 512.882 216.185 513.292 216.212V219C512.936 219.055 512.622 219.096 512.349 219.123C512.103 219.15 511.898 219.164 511.734 219.164C510.886 219.164 510.244 218.932 509.807 218.467C509.397 218.002 509.164 217.51 509.11 216.991L509.028 215.638C508.098 216.841 506.882 217.77 505.379 218.426C503.875 219.082 502.386 219.41 500.91 219.41C499.488 219.41 498.217 219.123 497.097 218.549C495.976 217.948 495.101 217.155 494.473 216.171C493.844 215.16 493.53 214.039 493.53 212.809ZM507.47 214.326C507.798 213.943 508.057 213.561 508.249 213.178C508.44 212.768 508.536 212.426 508.536 212.153V209.488C507.688 209.16 506.8 208.914 505.871 208.75C504.941 208.559 504.026 208.463 503.124 208.463C501.292 208.463 499.803 208.832 498.655 209.57C497.534 210.281 496.974 211.265 496.974 212.522C496.974 213.205 497.151 213.875 497.507 214.531C497.889 215.16 498.436 215.679 499.147 216.089C499.885 216.499 500.787 216.704 501.853 216.704C502.973 216.704 504.039 216.485 505.051 216.048C506.062 215.583 506.868 215.009 507.47 214.326ZM527.384 219.41C525.771 219.41 524.295 219.123 522.956 218.549C521.644 217.948 520.496 217.128 519.512 216.089C518.555 215.05 517.804 213.861 517.257 212.522C516.738 211.183 516.478 209.761 516.478 208.258C516.478 206.235 516.929 204.39 517.831 202.723C518.733 201.056 520.004 199.73 521.644 198.746C523.284 197.735 525.184 197.229 527.343 197.229C529.448 197.229 531.279 197.707 532.837 198.664C534.422 199.593 535.598 200.851 536.363 202.436L532.837 203.543C532.29 202.532 531.525 201.753 530.541 201.206C529.557 200.632 528.464 200.345 527.261 200.345C525.949 200.345 524.746 200.687 523.653 201.37C522.587 202.053 521.74 202.996 521.111 204.199C520.482 205.374 520.168 206.727 520.168 208.258C520.168 209.761 520.482 211.128 521.111 212.358C521.767 213.561 522.628 214.517 523.694 215.228C524.787 215.939 525.99 216.294 527.302 216.294C528.149 216.294 528.956 216.144 529.721 215.843C530.514 215.542 531.197 215.146 531.771 214.654C532.372 214.135 532.782 213.574 533.001 212.973L536.527 214.039C536.09 215.078 535.42 216.007 534.518 216.827C533.643 217.62 532.591 218.248 531.361 218.713C530.158 219.178 528.833 219.41 527.384 219.41ZM555.703 219L548.282 208.586L544.223 212.399V219H540.615V189.07H544.223V208.627L555.293 197.639H559.188L550.66 206.495L559.598 219H555.703ZM598.74 197.598H602.225L593.123 219H589.966L585.825 208.914L581.725 219H578.568L569.466 197.598H572.91L580.29 215.433L583.734 206.659L580.126 197.639H583.283L585.825 204.445L588.367 197.639H591.524L587.957 206.659L591.401 215.433L598.74 197.598ZM614.226 219.41C612.613 219.41 611.151 219.123 609.839 218.549C608.527 217.948 607.392 217.141 606.436 216.13C605.479 215.091 604.741 213.902 604.222 212.563C603.702 211.224 603.443 209.816 603.443 208.34C603.443 206.837 603.702 205.415 604.222 204.076C604.741 202.737 605.479 201.561 606.436 200.55C607.392 199.511 608.527 198.705 609.839 198.131C611.178 197.53 612.64 197.229 614.226 197.229C615.838 197.229 617.301 197.53 618.613 198.131C619.925 198.705 621.059 199.511 622.016 200.55C623 201.561 623.751 202.737 624.271 204.076C624.79 205.415 625.05 206.837 625.05 208.34C625.05 209.816 624.79 211.224 624.271 212.563C623.751 213.902 623.013 215.091 622.057 216.13C621.1 217.141 619.952 217.948 618.613 218.549C617.301 219.123 615.838 219.41 614.226 219.41ZM607.133 208.381C607.133 209.857 607.447 211.196 608.076 212.399C608.732 213.602 609.593 214.558 610.659 215.269C611.725 215.952 612.914 216.294 614.226 216.294C615.538 216.294 616.727 215.939 617.793 215.228C618.886 214.517 619.747 213.561 620.376 212.358C621.032 211.128 621.36 209.775 621.36 208.299C621.36 206.823 621.032 205.484 620.376 204.281C619.747 203.078 618.886 202.122 617.793 201.411C616.727 200.7 615.538 200.345 614.226 200.345C612.914 200.345 611.725 200.714 610.659 201.452C609.593 202.163 608.732 203.119 608.076 204.322C607.447 205.525 607.133 206.878 607.133 208.381ZM640.738 200.755C638.934 200.782 637.335 201.247 635.941 202.149C634.574 203.024 633.604 204.24 633.03 205.798V219H629.422V197.598H632.784V202.559C633.522 201.083 634.492 199.894 635.695 198.992C636.925 198.063 638.209 197.543 639.549 197.434C639.822 197.434 640.054 197.434 640.246 197.434C640.437 197.434 640.601 197.448 640.738 197.475V200.755ZM659.404 219L651.983 208.586L647.924 212.399V219H644.316V189.07H647.924V208.627L658.994 197.639H662.889L654.361 206.495L663.299 219H659.404ZM695.361 219H691.753V207.028C691.753 204.841 691.357 203.201 690.564 202.108C689.799 201.015 688.692 200.468 687.243 200.468C686.314 200.468 685.371 200.714 684.414 201.206C683.485 201.698 682.665 202.368 681.954 203.215C681.243 204.035 680.724 204.992 680.396 206.085V219H676.788V189.07H680.396V202.19C681.243 200.659 682.391 199.457 683.84 198.582C685.316 197.68 686.901 197.229 688.596 197.229C689.881 197.229 690.947 197.461 691.794 197.926C692.669 198.363 693.366 198.992 693.885 199.812C694.404 200.632 694.773 201.589 694.992 202.682C695.238 203.748 695.361 204.923 695.361 206.208V219ZM710.32 219.41C708.707 219.41 707.245 219.123 705.933 218.549C704.621 217.948 703.486 217.141 702.53 216.13C701.573 215.091 700.835 213.902 700.316 212.563C699.796 211.224 699.537 209.816 699.537 208.34C699.537 206.837 699.796 205.415 700.316 204.076C700.835 202.737 701.573 201.561 702.53 200.55C703.486 199.511 704.621 198.705 705.933 198.131C707.272 197.53 708.734 197.229 710.32 197.229C711.932 197.229 713.395 197.53 714.707 198.131C716.019 198.705 717.153 199.511 718.11 200.55C719.094 201.561 719.845 202.737 720.365 204.076C720.884 205.415 721.144 206.837 721.144 208.34C721.144 209.816 720.884 211.224 720.365 212.563C719.845 213.902 719.107 215.091 718.151 216.13C717.194 217.141 716.046 217.948 714.707 218.549C713.395 219.123 711.932 219.41 710.32 219.41ZM703.227 208.381C703.227 209.857 703.541 211.196 704.17 212.399C704.826 213.602 705.687 214.558 706.753 215.269C707.819 215.952 709.008 216.294 710.32 216.294C711.632 216.294 712.821 215.939 713.887 215.228C714.98 214.517 715.841 213.561 716.47 212.358C717.126 211.128 717.454 209.775 717.454 208.299C717.454 206.823 717.126 205.484 716.47 204.281C715.841 203.078 714.98 202.122 713.887 201.411C712.821 200.7 711.632 200.345 710.32 200.345C709.008 200.345 707.819 200.714 706.753 201.452C705.687 202.163 704.826 203.119 704.17 204.322C703.541 205.525 703.227 206.878 703.227 208.381ZM725.31 210.431V197.598H728.918V209.734C728.918 211.921 729.301 213.561 730.066 214.654C730.832 215.747 731.966 216.294 733.469 216.294C734.453 216.294 735.396 216.089 736.298 215.679C737.228 215.242 738.061 214.627 738.799 213.834C739.537 213.041 740.111 212.098 740.521 211.005V197.598H744.129V214.9C744.129 215.337 744.211 215.665 744.375 215.884C744.567 216.075 744.867 216.185 745.277 216.212V219C744.867 219.055 744.539 219.082 744.293 219.082C744.075 219.109 743.856 219.123 743.637 219.123C742.954 219.123 742.366 218.918 741.874 218.508C741.382 218.071 741.123 217.538 741.095 216.909L741.013 214.408C740.084 215.993 738.827 217.223 737.241 218.098C735.683 218.973 733.975 219.41 732.116 219.41C729.875 219.41 728.18 218.658 727.032 217.155C725.884 215.624 725.31 213.383 725.31 210.431ZM761.456 200.755C759.652 200.782 758.053 201.247 756.659 202.149C755.292 203.024 754.322 204.24 753.748 205.798V219H750.14V197.598H753.502V202.559C754.24 201.083 755.21 199.894 756.413 198.992C757.643 198.063 758.927 197.543 760.267 197.434C760.54 197.434 760.772 197.434 760.964 197.434C761.155 197.434 761.319 197.448 761.456 197.475V200.755ZM772.373 219.41C770.596 219.41 768.929 219.123 767.371 218.549C765.813 217.948 764.474 217.059 763.353 215.884L764.747 213.342C765.977 214.49 767.207 215.31 768.437 215.802C769.667 216.294 770.924 216.54 772.209 216.54C773.685 216.54 774.888 216.267 775.817 215.72C776.746 215.146 777.211 214.312 777.211 213.219C777.211 212.426 776.965 211.839 776.473 211.456C776.008 211.073 775.339 210.759 774.464 210.513C773.589 210.24 772.551 209.939 771.348 209.611C769.872 209.174 768.628 208.709 767.617 208.217C766.606 207.725 765.84 207.11 765.321 206.372C764.802 205.634 764.542 204.705 764.542 203.584C764.542 202.217 764.897 201.069 765.608 200.14C766.319 199.183 767.289 198.459 768.519 197.967C769.776 197.475 771.198 197.229 772.783 197.229C774.368 197.229 775.803 197.475 777.088 197.967C778.373 198.459 779.48 199.183 780.409 200.14L778.769 202.641C777.922 201.766 776.992 201.124 775.981 200.714C774.97 200.277 773.835 200.058 772.578 200.058C771.84 200.058 771.116 200.154 770.405 200.345C769.694 200.509 769.107 200.823 768.642 201.288C768.177 201.725 767.945 202.354 767.945 203.174C767.945 203.857 768.123 204.404 768.478 204.814C768.861 205.197 769.407 205.525 770.118 205.798C770.856 206.071 771.744 206.372 772.783 206.7C774.396 207.165 775.79 207.629 776.965 208.094C778.168 208.559 779.097 209.16 779.753 209.898C780.409 210.636 780.737 211.661 780.737 212.973C780.737 214.996 779.972 216.581 778.441 217.729C776.91 218.85 774.888 219.41 772.373 219.41ZM785.71 209.16V189.603H789.318V209.16H785.71ZM785.71 219V213.916H789.318V219H785.71Z" fill="#252429"/>
</svg>
