<svg width="915" height="298" viewBox="0 0 915 298" fill="none" xmlns="http://www.w3.org/2000/svg">
<path d="M133.593 127.897L129.474 134.959L133.593 146.73H144.775L147.718 137.313L202.45 123.189L212.455 99.0598L186.56 94.3517L144.775 130.251L133.593 127.897Z" fill="#252429"/>
<circle cx="123" cy="147.318" r="118.5" stroke="#252429" stroke-width="9"/>
<rect x="116.526" y="39.6196" width="11.7703" height="31.7799" rx="5.88517" fill="#252429"/>
<rect x="47.0814" y="73.8964" width="3.5311" height="20.0096" rx="1.76555" transform="rotate(-45 47.0814 73.8964)" fill="#252429"/>
<rect width="3.5311" height="20.0096" rx="1.76555" transform="matrix(0.707107 0.707107 0.707107 -0.707107 47.0814 220.907)" fill="#252429"/>
<rect x="186.114" y="88.0453" width="3.5311" height="20.0096" rx="1.76555" transform="rotate(-135 186.114 88.0453)" fill="#252429"/>
<rect width="3.5311" height="20.0096" rx="1.76555" transform="matrix(-0.707107 0.707107 0.707107 0.707107 186.114 206.758)" fill="#252429"/>
<rect x="200.096" y="152.615" width="11.7703" height="31.7799" rx="5.88517" transform="rotate(-90 200.096 152.615)" fill="#252429"/>
<rect x="15.3014" y="152.615" width="11.7703" height="31.7799" rx="5.88517" transform="rotate(-90 15.3014 152.615)" fill="#252429"/>
<path d="M110.053 167.916L114.761 159.089H130.651L135.947 167.916L127.12 179.098L128.885 187.926L114.761 197.342L117.703 179.098L110.053 167.916Z" fill="#252429"/>
<path d="M130.651 193.577L112.995 204.17V213.586L130.651 201.227V193.577Z" fill="#252429"/>
<path d="M109.213 223.171L108.672 223.536L108.571 224.182L102.685 261.847L102.599 262.401L102.897 262.876L121.729 292.891L122.962 294.855L124.248 292.925L144.258 262.911L144.591 262.411L144.487 261.819L135.071 208.264L134.67 205.987L132.754 207.281L109.213 223.171Z" fill="#252429" stroke="#252429" stroke-width="3"/>
<circle cx="122.411" cy="146.73" r="11.1244" stroke="#252429" stroke-width="6"/>
<path d="M423.34 112.84C425.333 112.84 426.763 113.273 427.63 114.14C428.583 115.007 429.06 116.133 429.06 117.52C429.06 119.773 428.367 121.767 426.98 123.5C425.68 125.233 423.6 126.143 420.74 126.23C413.893 126.317 407.74 125.797 402.28 124.67C396.213 137.583 388.89 148.33 380.31 156.91C371.817 165.403 363.41 169.65 355.09 169.65C347.463 169.65 341.743 165.62 337.93 157.56C334.117 149.413 331.95 138.537 331.43 124.93C326.23 140.01 320.337 151.233 313.75 158.6C307.25 165.967 300.317 169.65 292.95 169.65C284.63 169.65 278.347 164.493 274.1 154.18C269.853 143.78 267.73 129.827 267.73 112.32C267.73 99.58 268.857 85.5833 271.11 70.33C271.717 65.9967 272.8 63.0067 274.36 61.36C276.007 59.6267 278.563 58.76 282.03 58.76C284.63 58.76 286.623 59.3233 288.01 60.45C289.483 61.5767 290.22 63.6567 290.22 66.69C290.22 67.2967 290.133 68.4667 289.96 70.2C287.36 87.9667 286.06 103.09 286.06 115.57C286.06 127.183 287.057 136.153 289.05 142.48C291.043 148.807 293.73 151.97 297.11 151.97C300.143 151.97 303.783 148.807 308.03 142.48C312.363 136.067 316.653 126.62 320.9 114.14C325.147 101.573 328.743 86.6233 331.69 69.29C332.383 65.3033 333.64 62.5733 335.46 61.1C337.367 59.54 339.923 58.76 343.13 58.76C345.817 58.76 347.767 59.3667 348.98 60.58C350.28 61.7067 350.93 63.44 350.93 65.78C350.93 67.1667 350.843 68.25 350.67 69.03C348.243 83.1567 347.03 97.2833 347.03 111.41C347.03 121.03 347.333 128.7 347.94 134.42C348.633 140.14 349.89 144.517 351.71 147.55C353.617 150.497 356.347 151.97 359.9 151.97C364.06 151.97 368.697 148.85 373.81 142.61C378.923 136.283 383.603 128.44 387.85 119.08C382.563 115.787 378.577 111.54 375.89 106.34C373.203 101.053 371.86 94.9867 371.86 88.14C371.86 81.2933 372.9 75.53 374.98 70.85C377.147 66.0833 380.05 62.53 383.69 60.19C387.417 57.85 391.533 56.68 396.04 56.68C401.587 56.68 405.963 58.6733 409.17 62.66C412.463 66.6467 414.11 72.1067 414.11 79.04C414.11 88.8333 411.987 99.71 407.74 111.67C412.16 112.45 417.36 112.84 423.34 112.84ZM384.99 87.23C384.99 95.7233 387.72 102.007 393.18 106.08C396.56 96.3733 398.25 88.3567 398.25 82.03C398.25 78.39 397.773 75.7467 396.82 74.1C395.867 72.3667 394.567 71.5 392.92 71.5C390.58 71.5 388.673 72.8867 387.2 75.66C385.727 78.3467 384.99 82.2033 384.99 87.23ZM482.724 129.09C483.85 129.09 484.717 129.653 485.324 130.78C485.93 131.907 486.234 133.337 486.234 135.07C486.234 139.23 484.977 141.7 482.464 142.48C477.264 144.3 471.544 145.34 465.304 145.6C463.657 152.88 460.407 158.73 455.554 163.15C450.7 167.483 445.197 169.65 439.044 169.65C433.844 169.65 429.38 168.393 425.654 165.88C422.014 163.367 419.24 160.03 417.334 155.87C415.427 151.71 414.474 147.203 414.474 142.35C414.474 135.763 415.73 129.913 418.244 124.8C420.757 119.6 424.224 115.57 428.644 112.71C433.064 109.763 437.96 108.29 443.334 108.29C449.92 108.29 455.207 110.587 459.194 115.18C463.267 119.687 465.65 125.277 466.344 131.95C470.417 131.69 475.27 130.823 480.904 129.35C481.597 129.177 482.204 129.09 482.724 129.09ZM440.084 155.87C442.857 155.87 445.24 154.743 447.234 152.49C449.314 150.237 450.7 146.987 451.394 142.74C448.707 140.92 446.627 138.537 445.154 135.59C443.767 132.643 443.074 129.523 443.074 126.23C443.074 124.843 443.204 123.457 443.464 122.07H442.814C439.347 122.07 436.444 123.76 434.104 127.14C431.85 130.433 430.724 135.113 430.724 141.18C430.724 145.947 431.634 149.587 433.454 152.1C435.36 154.613 437.57 155.87 440.084 155.87ZM484.306 169.65C481.013 169.65 478.673 167.917 477.286 164.45C475.986 160.983 475.336 155.437 475.336 147.81C475.336 136.543 476.939 125.84 480.146 115.7C480.926 113.187 482.183 111.367 483.916 110.24C485.736 109.027 488.249 108.42 491.456 108.42C493.189 108.42 494.403 108.637 495.096 109.07C495.789 109.503 496.136 110.327 496.136 111.54C496.136 112.927 495.486 116.047 494.186 120.9C493.319 124.367 492.626 127.4 492.106 130C491.586 132.6 491.153 135.807 490.806 139.62C493.666 132.167 496.873 126.1 500.426 121.42C503.979 116.74 507.446 113.403 510.826 111.41C514.293 109.417 517.456 108.42 520.316 108.42C525.949 108.42 528.766 111.237 528.766 116.87C528.766 117.997 528.376 120.727 527.596 125.06C526.903 128.527 526.556 130.693 526.556 131.56C526.556 134.593 527.639 136.11 529.806 136.11C532.233 136.11 535.353 134.203 539.166 130.39C540.293 129.263 541.463 128.7 542.676 128.7C543.803 128.7 544.669 129.22 545.276 130.26C545.969 131.213 546.316 132.513 546.316 134.16C546.316 137.367 545.449 139.88 543.716 141.7C541.289 144.213 538.429 146.38 535.136 148.2C531.929 149.933 528.506 150.8 524.866 150.8C520.273 150.8 516.763 149.63 514.336 147.29C511.996 144.95 510.826 141.787 510.826 137.8C510.826 136.5 510.956 135.2 511.216 133.9C511.389 132.167 511.476 130.997 511.476 130.39C511.476 129.003 510.999 128.31 510.046 128.31C508.746 128.31 507.013 129.783 504.846 132.73C502.766 135.59 500.686 139.403 498.606 144.17C496.526 148.937 494.836 153.963 493.536 159.25C492.583 163.323 491.456 166.097 490.156 167.57C488.943 168.957 486.993 169.65 484.306 169.65ZM609.376 140.01C610.503 140.01 611.369 140.53 611.976 141.57C612.669 142.61 613.016 144.04 613.016 145.86C613.016 149.327 612.193 152.013 610.546 153.92C606.646 158.687 602.703 162.5 598.716 165.36C594.729 168.22 590.006 169.65 584.546 169.65C577.873 169.65 572.499 167.743 568.426 163.93C564.353 160.117 562.316 155.047 562.316 148.72C562.316 145.34 564.049 142.913 567.516 141.44C571.329 139.793 574.059 138.06 575.706 136.24C577.353 134.333 578.176 132.037 578.176 129.35C578.176 127.79 577.829 126.62 577.136 125.84C576.529 125.06 575.749 124.67 574.796 124.67C572.456 124.67 569.856 126.36 566.996 129.74C564.223 133.12 561.623 137.497 559.196 142.87C556.769 148.157 554.863 153.617 553.476 159.25C552.523 163.323 551.396 166.097 550.096 167.57C548.883 168.957 546.933 169.65 544.246 169.65C541.559 169.65 539.566 168.697 538.266 166.79C537.053 164.797 536.229 161.763 535.796 157.69C535.363 153.617 535.146 147.637 535.146 139.75C535.146 126.403 536.489 112.493 539.176 98.02C541.949 83.5467 545.979 71.4133 551.266 61.62C556.639 51.74 563.053 46.8 570.506 46.8C574.493 46.8 577.699 48.5333 580.126 52C582.639 55.38 583.896 59.8 583.896 65.26C583.896 74.0133 581.339 83.1133 576.226 92.56C571.113 101.92 562.793 112.883 551.266 125.45C551.006 129.957 550.876 134.593 550.876 139.36C555.036 128.527 559.803 120.683 565.176 115.83C570.549 110.89 575.576 108.42 580.256 108.42C584.589 108.42 588.056 109.893 590.656 112.84C593.343 115.787 594.686 119.427 594.686 123.76C594.686 128.527 593.473 132.903 591.046 136.89C588.619 140.877 584.459 144.43 578.566 147.55C578.913 149.89 579.953 151.797 581.686 153.27C583.506 154.657 585.673 155.35 588.186 155.35C590.873 155.35 593.473 154.31 595.986 152.23C598.499 150.15 601.793 146.683 605.866 141.83C606.906 140.617 608.076 140.01 609.376 140.01ZM567.776 59.67C566.216 59.67 564.483 61.9233 562.576 66.43C560.669 70.85 558.806 76.8733 556.986 84.5C555.253 92.04 553.823 100.273 552.696 109.2C558.069 102.873 562.489 95.9833 565.956 88.53C569.509 81.0767 571.286 74.3167 571.286 68.25C571.286 65.4767 570.983 63.3533 570.376 61.88C569.769 60.4067 568.903 59.67 567.776 59.67ZM626.717 172.51C622.21 172.51 618.744 171.47 616.317 169.39C613.977 167.31 612.807 164.97 612.807 162.37C612.807 160.117 613.63 158.167 615.277 156.52C616.924 154.873 619.35 154.05 622.557 154.05C623.684 154.05 624.984 154.18 626.457 154.44C628.017 154.613 629.187 154.743 629.967 154.83C629.88 152.577 629.36 150.453 628.407 148.46C627.54 146.467 626.414 144.56 625.027 142.74C623.64 140.833 622.34 139.187 621.127 137.8C618.44 142.913 615.754 147.16 613.067 150.54C610.467 153.92 607.607 157.127 604.487 160.16C602.927 161.72 601.28 162.5 599.547 162.5C598.16 162.5 597.034 162.023 596.167 161.07C595.3 160.03 594.867 158.773 594.867 157.3C594.867 155.567 595.474 153.963 596.687 152.49L598.377 150.41C603.144 144.517 606.74 139.663 609.167 135.85C610.64 133.337 612.374 130 614.367 125.84C616.36 121.593 618.31 117.217 620.217 112.71C621.864 108.897 625.287 106.99 630.487 106.99C632.914 106.99 634.604 107.207 635.557 107.64C636.51 108.073 636.987 108.767 636.987 109.72C636.987 110.24 636.814 111.063 636.467 112.19C636.12 113.317 635.644 114.443 635.037 115.57C633.477 118.69 632.697 121.333 632.697 123.5C632.697 124.8 633.13 126.23 633.997 127.79C634.95 129.35 636.38 131.3 638.287 133.64C641.06 137.28 643.14 140.4 644.527 143C646 145.513 646.737 148.287 646.737 151.32C646.737 152.187 646.65 153.4 646.477 154.96C650.724 153.313 655.707 148.937 661.427 141.83C662.467 140.617 663.637 140.01 664.937 140.01C666.064 140.01 666.93 140.53 667.537 141.57C668.23 142.61 668.577 144.04 668.577 145.86C668.577 149.153 667.754 151.84 666.107 153.92C661.774 159.293 657.614 162.977 653.627 164.97C649.727 166.877 644.874 167.917 639.067 168.09C635.6 171.037 631.484 172.51 626.717 172.51ZM730.165 140.01C731.292 140.01 732.159 140.53 732.765 141.57C733.459 142.61 733.805 144.04 733.805 145.86C733.805 149.327 732.982 152.013 731.335 153.92C727.349 158.513 723.232 162.283 718.985 165.23C714.825 168.177 710.059 169.65 704.685 169.65C700.265 169.65 696.929 168.393 694.675 165.88C692.422 163.28 691.295 159.553 691.295 154.7C691.295 152.273 691.902 147.94 693.115 141.7C694.242 136.24 694.805 132.47 694.805 130.39C694.805 129.003 694.329 128.31 693.375 128.31C692.249 128.31 690.645 129.783 688.565 132.73C686.485 135.59 684.405 139.403 682.325 144.17C680.245 148.937 678.555 153.963 677.255 159.25C675.609 166.183 671.535 169.65 665.035 169.65C662.435 169.65 660.702 168.74 659.835 166.92C659.055 165.013 658.665 161.633 658.665 156.78C658.665 154.007 658.709 151.797 658.795 150.15L658.925 139.75C658.925 126.403 660.269 112.493 662.955 98.02C665.729 83.5467 669.759 71.4133 675.045 61.62C680.419 51.74 686.832 46.8 694.285 46.8C698.272 46.8 701.479 48.5333 703.905 52C706.419 55.38 707.675 59.8 707.675 65.26C707.675 74.0133 705.119 83.1133 700.005 92.56C694.892 101.92 686.572 112.883 675.045 125.45C674.785 129.957 674.655 134.593 674.655 139.36C677.515 131.993 680.679 126.013 684.145 121.42C687.699 116.74 691.165 113.403 694.545 111.41C698.012 109.417 701.175 108.42 704.035 108.42C709.669 108.42 712.485 111.237 712.485 116.87C712.485 120.25 711.532 126.36 709.625 135.2C707.979 142.74 707.155 147.723 707.155 150.15C707.155 153.617 708.412 155.35 710.925 155.35C712.659 155.35 714.695 154.31 717.035 152.23C719.462 150.063 722.669 146.597 726.655 141.83C727.695 140.617 728.865 140.01 730.165 140.01ZM691.555 59.67C689.995 59.67 688.262 61.9233 686.355 66.43C684.449 70.85 682.585 76.8733 680.765 84.5C679.032 92.04 677.602 100.273 676.475 109.2C681.849 102.873 686.269 95.9833 689.735 88.53C693.289 81.0767 695.065 74.3167 695.065 68.25C695.065 65.4767 694.762 63.3533 694.155 61.88C693.549 60.4067 692.682 59.67 691.555 59.67ZM781.249 140.01C782.376 140.01 783.243 140.53 783.849 141.57C784.543 142.61 784.889 144.04 784.889 145.86C784.889 149.327 784.066 152.013 782.419 153.92C779.213 157.82 774.663 161.417 768.769 164.71C762.963 168.003 756.723 169.65 750.049 169.65C740.949 169.65 733.886 167.18 728.859 162.24C723.833 157.3 721.319 150.54 721.319 141.96C721.319 135.98 722.576 130.433 725.089 125.32C727.603 120.12 731.069 116.003 735.489 112.97C739.996 109.937 745.066 108.42 750.699 108.42C755.726 108.42 759.756 109.937 762.789 112.97C765.823 115.917 767.339 119.947 767.339 125.06C767.339 131.04 765.173 136.197 760.839 140.53C756.593 144.777 749.356 148.157 739.129 150.67C741.296 154.657 745.413 156.65 751.479 156.65C755.379 156.65 759.799 155.307 764.739 152.62C769.766 149.847 774.099 146.25 777.739 141.83C778.779 140.617 779.949 140.01 781.249 140.01ZM748.489 121.16C745.283 121.16 742.553 123.023 740.299 126.75C738.133 130.477 737.049 134.983 737.049 140.27V140.53C742.163 139.317 746.193 137.497 749.139 135.07C752.086 132.643 753.559 129.827 753.559 126.62C753.559 124.973 753.083 123.673 752.129 122.72C751.263 121.68 750.049 121.16 748.489 121.16ZM832.284 140.01C833.411 140.01 834.278 140.53 834.884 141.57C835.578 142.61 835.924 144.04 835.924 145.86C835.924 149.327 835.101 152.013 833.454 153.92C830.248 157.82 825.698 161.417 819.804 164.71C813.998 168.003 807.758 169.65 801.084 169.65C791.984 169.65 784.921 167.18 779.894 162.24C774.868 157.3 772.354 150.54 772.354 141.96C772.354 135.98 773.611 130.433 776.124 125.32C778.638 120.12 782.104 116.003 786.524 112.97C791.031 109.937 796.101 108.42 801.734 108.42C806.761 108.42 810.791 109.937 813.824 112.97C816.858 115.917 818.374 119.947 818.374 125.06C818.374 131.04 816.208 136.197 811.874 140.53C807.628 144.777 800.391 148.157 790.164 150.67C792.331 154.657 796.448 156.65 802.514 156.65C806.414 156.65 810.834 155.307 815.774 152.62C820.801 149.847 825.134 146.25 828.774 141.83C829.814 140.617 830.984 140.01 832.284 140.01ZM799.524 121.16C796.318 121.16 793.588 123.023 791.334 126.75C789.168 130.477 788.084 134.983 788.084 140.27V140.53C793.198 139.317 797.228 137.497 800.174 135.07C803.121 132.643 804.594 129.827 804.594 126.62C804.594 124.973 804.118 123.673 803.164 122.72C802.298 121.68 801.084 121.16 799.524 121.16ZM846.79 120.77C846.616 125.103 846.53 128.483 846.53 130.91C846.53 137.15 846.833 142.047 847.44 145.6C848.133 149.067 849.216 151.58 850.69 153.14C852.25 154.613 854.373 155.35 857.06 155.35C858.446 155.35 860.093 154.917 862 154.05C863.906 153.183 865.64 152.057 867.2 150.67C868.153 149.803 869.106 149.37 870.06 149.37C871.1 149.37 871.923 149.977 872.53 151.19C873.223 152.317 873.57 153.703 873.57 155.35C873.57 156.997 873.223 158.6 872.53 160.16C871.923 161.72 870.97 163.02 869.67 164.06C865.163 167.787 860.05 169.65 854.33 169.65C846.096 169.65 840.073 166.227 836.26 159.38C832.446 152.447 830.54 143.433 830.54 132.34C830.54 128.527 830.67 124.67 830.93 120.77H825.86C823.26 120.77 821.483 120.293 820.53 119.34C819.663 118.387 819.23 116.87 819.23 114.79C819.23 109.937 821.18 107.51 825.08 107.51H832.49C833.963 97.9767 836.216 89.2667 839.25 81.38C842.283 73.4933 845.923 67.21 850.17 62.53C854.503 57.85 859.14 55.51 864.08 55.51C867.72 55.51 870.58 57.1133 872.66 60.32C874.74 63.5267 875.78 67.5567 875.78 72.41C875.78 85.8433 870.146 97.5433 858.88 107.51H873.44C874.826 107.51 875.823 107.813 876.43 108.42C877.036 109.027 877.34 110.153 877.34 111.8C877.34 117.78 872.443 120.77 862.65 120.77H846.79ZM860.57 67.99C859.27 67.99 857.796 69.6367 856.15 72.93C854.59 76.1367 853.073 80.6433 851.6 86.45C850.213 92.17 849.043 98.54 848.09 105.56C853.203 101.14 857.016 96.2 859.53 90.74C862.13 85.1933 863.43 80.1667 863.43 75.66C863.43 70.5467 862.476 67.99 860.57 67.99Z" fill="#252429"/>
<path d="M302.85 202.5H290.6V234H286.1V202.5H273.85V198.5H302.85V202.5ZM307.263 234V207.9H311.663V234H307.263ZM307.263 203V197.5H311.663V203H307.263ZM358.136 234H353.736V219.4C353.736 216.667 353.286 214.65 352.386 213.35C351.52 212.05 350.22 211.4 348.486 211.4C346.72 211.4 345.12 212.05 343.686 213.35C342.253 214.617 341.236 216.267 340.636 218.3V234H336.236V219.4C336.236 216.633 335.803 214.617 334.936 213.35C334.07 212.05 332.77 211.4 331.036 211.4C329.303 211.4 327.703 212.033 326.236 213.3C324.803 214.533 323.786 216.183 323.186 218.25V234H318.786V207.9H322.786V213.5C323.853 211.567 325.236 210.083 326.936 209.05C328.636 207.983 330.553 207.45 332.686 207.45C334.853 207.45 336.586 208.05 337.886 209.25C339.186 210.417 339.986 211.933 340.286 213.8C341.453 211.733 342.87 210.167 344.536 209.1C346.203 208 348.103 207.45 350.236 207.45C351.736 207.45 352.986 207.733 353.986 208.3C355.02 208.833 355.836 209.6 356.436 210.6C357.036 211.567 357.47 212.717 357.736 214.05C358.003 215.383 358.136 216.833 358.136 218.4V234ZM376.528 234.5C374.561 234.5 372.761 234.15 371.128 233.45C369.528 232.717 368.128 231.733 366.928 230.5C365.761 229.233 364.844 227.783 364.178 226.15C363.544 224.517 363.228 222.783 363.228 220.95C363.228 218.483 363.794 216.233 364.928 214.2C366.061 212.167 367.628 210.533 369.628 209.3C371.661 208.067 373.978 207.45 376.578 207.45C379.211 207.45 381.494 208.083 383.428 209.35C385.394 210.583 386.911 212.217 387.978 214.25C389.078 216.25 389.628 218.417 389.628 220.75C389.628 221.083 389.611 221.417 389.578 221.75C389.578 222.05 389.561 222.283 389.528 222.45H367.878C368.011 224.15 368.478 225.667 369.278 227C370.111 228.3 371.178 229.333 372.478 230.1C373.778 230.833 375.178 231.2 376.678 231.2C378.278 231.2 379.778 230.8 381.178 230C382.611 229.2 383.594 228.15 384.128 226.85L387.928 227.9C387.361 229.167 386.511 230.3 385.378 231.3C384.278 232.3 382.961 233.083 381.428 233.65C379.928 234.217 378.294 234.5 376.528 234.5ZM367.728 219.4H385.528C385.394 217.7 384.911 216.2 384.078 214.9C383.244 213.6 382.178 212.583 380.878 211.85C379.578 211.117 378.144 210.75 376.578 210.75C375.044 210.75 373.628 211.117 372.328 211.85C371.028 212.583 369.961 213.6 369.128 214.9C368.328 216.2 367.861 217.7 367.728 219.4ZM407.165 234V207.9H411.565V234H407.165ZM407.165 203V197.5H411.565V203H407.165ZM427.639 234.5C425.472 234.5 423.439 234.15 421.539 233.45C419.639 232.717 418.005 231.633 416.639 230.2L418.339 227.1C419.839 228.5 421.339 229.5 422.839 230.1C424.339 230.7 425.872 231 427.439 231C429.239 231 430.705 230.667 431.839 230C432.972 229.3 433.539 228.283 433.539 226.95C433.539 225.983 433.239 225.267 432.639 224.8C432.072 224.333 431.255 223.95 430.189 223.65C429.122 223.317 427.855 222.95 426.389 222.55C424.589 222.017 423.072 221.45 421.839 220.85C420.605 220.25 419.672 219.5 419.039 218.6C418.405 217.7 418.089 216.567 418.089 215.2C418.089 213.533 418.522 212.133 419.389 211C420.255 209.833 421.439 208.95 422.939 208.35C424.472 207.75 426.205 207.45 428.139 207.45C430.072 207.45 431.822 207.75 433.389 208.35C434.955 208.95 436.305 209.833 437.439 211L435.439 214.05C434.405 212.983 433.272 212.2 432.039 211.7C430.805 211.167 429.422 210.9 427.889 210.9C426.989 210.9 426.105 211.017 425.239 211.25C424.372 211.45 423.655 211.833 423.089 212.4C422.522 212.933 422.239 213.7 422.239 214.7C422.239 215.533 422.455 216.2 422.889 216.7C423.355 217.167 424.022 217.567 424.889 217.9C425.789 218.233 426.872 218.6 428.139 219C430.105 219.567 431.805 220.133 433.239 220.7C434.705 221.267 435.839 222 436.639 222.9C437.439 223.8 437.839 225.05 437.839 226.65C437.839 229.117 436.905 231.05 435.039 232.45C433.172 233.817 430.705 234.5 427.639 234.5ZM469.249 232.7C468.883 232.867 468.383 233.083 467.749 233.35C467.116 233.617 466.383 233.85 465.549 234.05C464.716 234.25 463.833 234.35 462.899 234.35C461.833 234.35 460.849 234.167 459.949 233.8C459.049 233.4 458.333 232.8 457.799 232C457.266 231.167 456.999 230.133 456.999 228.9V211.35H453.449V207.9H456.999V199.2H461.399V207.9H467.249V211.35H461.399V227.55C461.466 228.483 461.783 229.183 462.349 229.65C462.916 230.083 463.583 230.3 464.349 230.3C465.216 230.3 466.016 230.15 466.749 229.85C467.483 229.55 467.966 229.333 468.199 229.2L469.249 232.7ZM484.386 234.5C482.419 234.5 480.636 234.15 479.036 233.45C477.436 232.717 476.052 231.733 474.886 230.5C473.719 229.233 472.819 227.783 472.186 226.15C471.552 224.517 471.236 222.8 471.236 221C471.236 219.167 471.552 217.433 472.186 215.8C472.819 214.167 473.719 212.733 474.886 211.5C476.052 210.233 477.436 209.25 479.036 208.55C480.669 207.817 482.452 207.45 484.386 207.45C486.352 207.45 488.136 207.817 489.736 208.55C491.336 209.25 492.719 210.233 493.886 211.5C495.086 212.733 496.002 214.167 496.636 215.8C497.269 217.433 497.586 219.167 497.586 221C497.586 222.8 497.269 224.517 496.636 226.15C496.002 227.783 495.102 229.233 493.936 230.5C492.769 231.733 491.369 232.717 489.736 233.45C488.136 234.15 486.352 234.5 484.386 234.5ZM475.736 221.05C475.736 222.85 476.119 224.483 476.886 225.95C477.686 227.417 478.736 228.583 480.036 229.45C481.336 230.283 482.786 230.7 484.386 230.7C485.986 230.7 487.436 230.267 488.736 229.4C490.069 228.533 491.119 227.367 491.886 225.9C492.686 224.4 493.086 222.75 493.086 220.95C493.086 219.15 492.686 217.517 491.886 216.05C491.119 214.583 490.069 213.417 488.736 212.55C487.436 211.683 485.986 211.25 484.386 211.25C482.786 211.25 481.336 211.7 480.036 212.6C478.736 213.467 477.686 214.633 476.886 216.1C476.119 217.567 475.736 219.217 475.736 221.05ZM529.064 232.7C528.697 232.867 528.197 233.083 527.564 233.35C526.93 233.617 526.197 233.85 525.364 234.05C524.53 234.25 523.647 234.35 522.714 234.35C521.647 234.35 520.664 234.167 519.764 233.8C518.864 233.4 518.147 232.8 517.614 232C517.08 231.167 516.814 230.133 516.814 228.9V211.35H513.264V207.9H516.814V199.2H521.214V207.9H527.064V211.35H521.214V227.55C521.28 228.483 521.597 229.183 522.164 229.65C522.73 230.083 523.397 230.3 524.164 230.3C525.03 230.3 525.83 230.15 526.564 229.85C527.297 229.55 527.78 229.333 528.014 229.2L529.064 232.7ZM546.942 211.75C544.742 211.783 542.792 212.35 541.092 213.45C539.425 214.517 538.242 216 537.542 217.9V234H533.142V207.9H537.242V213.95C538.142 212.15 539.325 210.7 540.792 209.6C542.292 208.467 543.858 207.833 545.492 207.7C545.825 207.7 546.108 207.7 546.342 207.7C546.575 207.7 546.775 207.717 546.942 207.75V211.75ZM549.256 226.45C549.256 224.783 549.723 223.35 550.656 222.15C551.623 220.917 552.939 219.967 554.606 219.3C556.273 218.633 558.206 218.3 560.406 218.3C561.573 218.3 562.806 218.4 564.106 218.6C565.406 218.767 566.556 219.033 567.556 219.4V217.5C567.556 215.5 566.956 213.933 565.756 212.8C564.556 211.633 562.856 211.05 560.656 211.05C559.223 211.05 557.839 211.317 556.506 211.85C555.206 212.35 553.823 213.083 552.356 214.05L550.756 210.95C552.456 209.783 554.156 208.917 555.856 208.35C557.556 207.75 559.323 207.45 561.156 207.45C564.489 207.45 567.123 208.383 569.056 210.25C570.989 212.083 571.956 214.65 571.956 217.95V229C571.956 229.533 572.056 229.933 572.256 230.2C572.489 230.433 572.856 230.567 573.356 230.6V234C572.923 234.067 572.539 234.117 572.206 234.15C571.906 234.183 571.656 234.2 571.456 234.2C570.423 234.2 569.639 233.917 569.106 233.35C568.606 232.783 568.323 232.183 568.256 231.55L568.156 229.9C567.023 231.367 565.539 232.5 563.706 233.3C561.873 234.1 560.056 234.5 558.256 234.5C556.523 234.5 554.973 234.15 553.606 233.45C552.239 232.717 551.173 231.75 550.406 230.55C549.639 229.317 549.256 227.95 549.256 226.45ZM566.256 228.3C566.656 227.833 566.973 227.367 567.206 226.9C567.439 226.4 567.556 225.983 567.556 225.65V222.4C566.523 222 565.439 221.7 564.306 221.5C563.173 221.267 562.056 221.15 560.956 221.15C558.723 221.15 556.906 221.6 555.506 222.5C554.139 223.367 553.456 224.567 553.456 226.1C553.456 226.933 553.673 227.75 554.106 228.55C554.573 229.317 555.239 229.95 556.106 230.45C557.006 230.95 558.106 231.2 559.406 231.2C560.773 231.2 562.073 230.933 563.306 230.4C564.539 229.833 565.523 229.133 566.256 228.3ZM590.541 234.5C588.575 234.5 586.775 234.15 585.141 233.45C583.541 232.717 582.141 231.717 580.941 230.45C579.775 229.183 578.858 227.733 578.191 226.1C577.558 224.467 577.241 222.733 577.241 220.9C577.241 218.433 577.791 216.183 578.891 214.15C579.991 212.117 581.541 210.5 583.541 209.3C585.541 208.067 587.858 207.45 590.491 207.45C593.058 207.45 595.291 208.033 597.191 209.2C599.125 210.333 600.558 211.867 601.491 213.8L597.191 215.15C596.525 213.917 595.591 212.967 594.391 212.3C593.191 211.6 591.858 211.25 590.391 211.25C588.791 211.25 587.325 211.667 585.991 212.5C584.691 213.333 583.658 214.483 582.891 215.95C582.125 217.383 581.741 219.033 581.741 220.9C581.741 222.733 582.125 224.4 582.891 225.9C583.691 227.367 584.741 228.533 586.041 229.4C587.375 230.267 588.841 230.7 590.441 230.7C591.475 230.7 592.458 230.517 593.391 230.15C594.358 229.783 595.191 229.3 595.891 228.7C596.625 228.067 597.125 227.383 597.391 226.65L601.691 227.95C601.158 229.217 600.341 230.35 599.241 231.35C598.175 232.317 596.891 233.083 595.391 233.65C593.925 234.217 592.308 234.5 590.541 234.5ZM625.077 234L616.027 221.3L611.077 225.95V234H606.677V197.5H611.077V221.35L624.577 207.95H629.327L618.927 218.75L629.827 234H625.077ZM677.561 207.9H681.811L670.711 234H666.861L661.811 221.7L656.811 234H652.961L641.861 207.9H646.061L655.061 229.65L659.261 218.95L654.861 207.95H658.711L661.811 216.25L664.911 207.95H668.761L664.411 218.95L668.611 229.65L677.561 207.9ZM696.446 234.5C694.479 234.5 692.696 234.15 691.096 233.45C689.496 232.717 688.113 231.733 686.946 230.5C685.779 229.233 684.879 227.783 684.246 226.15C683.613 224.517 683.296 222.8 683.296 221C683.296 219.167 683.613 217.433 684.246 215.8C684.879 214.167 685.779 212.733 686.946 211.5C688.113 210.233 689.496 209.25 691.096 208.55C692.729 207.817 694.513 207.45 696.446 207.45C698.413 207.45 700.196 207.817 701.796 208.55C703.396 209.25 704.779 210.233 705.946 211.5C707.146 212.733 708.063 214.167 708.696 215.8C709.329 217.433 709.646 219.167 709.646 221C709.646 222.8 709.329 224.517 708.696 226.15C708.063 227.783 707.163 229.233 705.996 230.5C704.829 231.733 703.429 232.717 701.796 233.45C700.196 234.15 698.413 234.5 696.446 234.5ZM687.796 221.05C687.796 222.85 688.179 224.483 688.946 225.95C689.746 227.417 690.796 228.583 692.096 229.45C693.396 230.283 694.846 230.7 696.446 230.7C698.046 230.7 699.496 230.267 700.796 229.4C702.129 228.533 703.179 227.367 703.946 225.9C704.746 224.4 705.146 222.75 705.146 220.95C705.146 219.15 704.746 217.517 703.946 216.05C703.179 214.583 702.129 213.417 700.796 212.55C699.496 211.683 698.046 211.25 696.446 211.25C694.846 211.25 693.396 211.7 692.096 212.6C690.796 213.467 689.746 214.633 688.946 216.1C688.179 217.567 687.796 219.217 687.796 221.05ZM728.778 211.75C726.578 211.783 724.628 212.35 722.928 213.45C721.261 214.517 720.078 216 719.378 217.9V234H714.978V207.9H719.078V213.95C719.978 212.15 721.161 210.7 722.628 209.6C724.128 208.467 725.694 207.833 727.328 207.7C727.661 207.7 727.944 207.7 728.178 207.7C728.411 207.7 728.611 207.717 728.778 207.75V211.75ZM751.542 234L742.492 221.3L737.542 225.95V234H733.142V197.5H737.542V221.35L751.042 207.95H755.792L745.392 218.75L756.292 234H751.542ZM795.391 234H790.991V219.4C790.991 216.733 790.508 214.733 789.541 213.4C788.608 212.067 787.258 211.4 785.491 211.4C784.358 211.4 783.208 211.7 782.041 212.3C780.908 212.9 779.908 213.717 779.041 214.75C778.175 215.75 777.541 216.917 777.141 218.25V234H772.741V197.5H777.141V213.5C778.175 211.633 779.575 210.167 781.341 209.1C783.141 208 785.075 207.45 787.141 207.45C788.708 207.45 790.008 207.733 791.041 208.3C792.108 208.833 792.958 209.6 793.591 210.6C794.225 211.6 794.675 212.767 794.941 214.1C795.241 215.4 795.391 216.833 795.391 218.4V234ZM813.634 234.5C811.667 234.5 809.884 234.15 808.284 233.45C806.684 232.717 805.3 231.733 804.134 230.5C802.967 229.233 802.067 227.783 801.434 226.15C800.8 224.517 800.484 222.8 800.484 221C800.484 219.167 800.8 217.433 801.434 215.8C802.067 214.167 802.967 212.733 804.134 211.5C805.3 210.233 806.684 209.25 808.284 208.55C809.917 207.817 811.7 207.45 813.634 207.45C815.6 207.45 817.384 207.817 818.984 208.55C820.584 209.25 821.967 210.233 823.134 211.5C824.334 212.733 825.25 214.167 825.884 215.8C826.517 217.433 826.834 219.167 826.834 221C826.834 222.8 826.517 224.517 825.884 226.15C825.25 227.783 824.35 229.233 823.184 230.5C822.017 231.733 820.617 232.717 818.984 233.45C817.384 234.15 815.6 234.5 813.634 234.5ZM804.984 221.05C804.984 222.85 805.367 224.483 806.134 225.95C806.934 227.417 807.984 228.583 809.284 229.45C810.584 230.283 812.034 230.7 813.634 230.7C815.234 230.7 816.684 230.267 817.984 229.4C819.317 228.533 820.367 227.367 821.134 225.9C821.934 224.4 822.334 222.75 822.334 220.95C822.334 219.15 821.934 217.517 821.134 216.05C820.367 214.583 819.317 213.417 817.984 212.55C816.684 211.683 815.234 211.25 813.634 211.25C812.034 211.25 810.584 211.7 809.284 212.6C807.984 213.467 806.934 214.633 806.134 216.1C805.367 217.567 804.984 219.217 804.984 221.05ZM831.915 223.55V207.9H836.315V222.7C836.315 225.367 836.782 227.367 837.715 228.7C838.649 230.033 840.032 230.7 841.865 230.7C843.065 230.7 844.215 230.45 845.315 229.95C846.449 229.417 847.465 228.667 848.365 227.7C849.265 226.733 849.965 225.583 850.465 224.25V207.9H854.865V229C854.865 229.533 854.965 229.933 855.165 230.2C855.399 230.433 855.765 230.567 856.265 230.6V234C855.765 234.067 855.365 234.1 855.065 234.1C854.799 234.133 854.532 234.15 854.265 234.15C853.432 234.15 852.715 233.9 852.115 233.4C851.515 232.867 851.199 232.217 851.165 231.45L851.065 228.4C849.932 230.333 848.399 231.833 846.465 232.9C844.565 233.967 842.482 234.5 840.215 234.5C837.482 234.5 835.415 233.583 834.015 231.75C832.615 229.883 831.915 227.15 831.915 223.55ZM875.995 211.75C873.795 211.783 871.845 212.35 870.145 213.45C868.478 214.517 867.295 216 866.595 217.9V234H862.195V207.9H866.295V213.95C867.195 212.15 868.378 210.7 869.845 209.6C871.345 208.467 872.911 207.833 874.545 207.7C874.878 207.7 875.161 207.7 875.395 207.7C875.628 207.7 875.828 207.717 875.995 207.75V211.75ZM889.309 234.5C887.142 234.5 885.109 234.15 883.209 233.45C881.309 232.717 879.675 231.633 878.309 230.2L880.009 227.1C881.509 228.5 883.009 229.5 884.509 230.1C886.009 230.7 887.542 231 889.109 231C890.909 231 892.375 230.667 893.509 230C894.642 229.3 895.209 228.283 895.209 226.95C895.209 225.983 894.909 225.267 894.309 224.8C893.742 224.333 892.925 223.95 891.859 223.65C890.792 223.317 889.525 222.95 888.059 222.55C886.259 222.017 884.742 221.45 883.509 220.85C882.275 220.25 881.342 219.5 880.709 218.6C880.075 217.7 879.759 216.567 879.759 215.2C879.759 213.533 880.192 212.133 881.059 211C881.925 209.833 883.109 208.95 884.609 208.35C886.142 207.75 887.875 207.45 889.809 207.45C891.742 207.45 893.492 207.75 895.059 208.35C896.625 208.95 897.975 209.833 899.109 211L897.109 214.05C896.075 212.983 894.942 212.2 893.709 211.7C892.475 211.167 891.092 210.9 889.559 210.9C888.659 210.9 887.775 211.017 886.909 211.25C886.042 211.45 885.325 211.833 884.759 212.4C884.192 212.933 883.909 213.7 883.909 214.7C883.909 215.533 884.125 216.2 884.559 216.7C885.025 217.167 885.692 217.567 886.559 217.9C887.459 218.233 888.542 218.6 889.809 219C891.775 219.567 893.475 220.133 894.909 220.7C896.375 221.267 897.509 222 898.309 222.9C899.109 223.8 899.509 225.05 899.509 226.65C899.509 229.117 898.575 231.05 896.709 232.45C894.842 233.817 892.375 234.5 889.309 234.5ZM905.573 222V198.15H909.973V222H905.573ZM905.573 234V227.8H909.973V234H905.573Z" fill="#252429"/>
</svg>
